# xmcd
#
# Track frame offsets: 
#        150
#        39272
#        58657
#        119593
#        169454
#        222276
#
# Disc length: 4139 seconds
#
# Revision: 10
# Processed by: cddbd v1.5.2PL0 Copyright (c) Steve Scherf et al.
# Submitted via: ExactAudioCopy v0.95b4
#
DISCID=56102906
DTITLE=Lynyrd Skynyrd - Lyve From Steel Town [CD 2)
DYEAR=1998
DGENRE=Rock
TTITLE0=Sweet Home Alabama
TTITLE1=Travelin' Man
TTITLE2=Free Bird
TTITLE3=Radio Interview Part 1
TTITLE4=Radio Interview Part 2
TTITLE5=Data
EXTD=YEAR: 1998
EXTT0=
EXTT1=
EXTT2=
EXTT3=
EXTT4=
EXTT5=
PLAYORDER=
